<svg xmlns="http://www.w3.org/2000/svg" height="800" width="1200" viewBox="-75 -135.626 650 813.756"><path d="M76.071 365.55v55.26c0 21.939-13.43 38.445-38.035 38.445C13.43 459.255 0 442.85 0 420.809v-55.26h19.992v53.62c0 13.43 6.356 21.017 18.044 21.017 11.687 0 18.044-7.587 18.044-21.017v-53.62zm74.329 64.69c0 15.891-12.508 27.374-32.602 27.374H86.016V365.55h30.654c17.736 0 29.424 8.51 29.424 22.247 0 10.355-4.819 16.711-12.098 19.684 9.637 3.691 16.404 10.355 16.404 22.76zm-44.495-47.057v19.479h10.56c6.151 0 10.355-3.589 10.355-9.74s-4.204-9.74-10.355-9.74zm11.073 56.797c8.509 0 13.43-3.896 13.43-11.585 0-7.587-4.819-11.585-13.43-11.585h-11.073v23.17zm41.111-74.431h19.992v92.065h-19.992zm68.28 37.215c15.788 5.536 23.887 12.61 23.887 26.861 0 19.07-14.558 29.629-31.782 29.629-15.89 0-28.09-7.074-33.217-20.3l15.891-11.79c2.87 8.305 10.355 13.43 17.84 13.43 6.56 0 11.276-3.587 11.276-9.431 0-5.536-3.588-8.92-16.71-13.636-14.251-5.126-24.708-12.2-24.708-27.475 0-14.764 12.2-25.939 29.936-25.939 14.046 0 25.015 5.64 30.142 16.814L233.033 392c-2.974-6.869-7.792-10.662-14.969-10.662-6.048 0-10.56 3.28-10.56 7.997.103 5.229 5.127 8.612 18.865 13.43zm123.129 8.817c0 27.066-19.48 47.57-46.853 47.57-27.988 0-46.853-20.094-46.853-44.494 0-15.789 6.152-27.168 15.276-34.755l-3.178-3.178c6.972-7.28 19.684-12.918 34.755-12.918 27.373.205 46.853 20.914 46.853 47.775zm-20.197 0c0-16.608-10.56-28.706-26.553-28.706-9.33 0-16.301 3.588-20.505 8.202l3.178 3.178c-4.818 4.1-9.227 9.74-9.227 19.89 0 13.942 9.842 26.142 26.554 26.142 15.993-.102 26.553-12.097 26.553-28.706zm48.288-27.066v21.325h39.06v15.276h-39.06v36.6h-19.992V365.55h62.948v18.966zm122.411 0h-25.733v73.099h-19.992v-73.099h-25.938V365.55H500z"/><path class="st0" fill="#fd9905" d="M190.896 111.808l-45.11-42.854-14.353 13.43 43.675 40.804 1.743 1.743z"/><path d="M115.747 221.404c-2.973 2.768-3.793 7.279-1.742 10.97l46.955 83.76 1.332 2.358 15.481-8.612-44.904-79.967 102.009-95.243-13.02-12.2z"/><path d="M187.718 207.973l-15.07 13.84 34.139 113.595 16.198-7.586zm139.43 15.174l.41-1.333-14.968-13.84-35.37 119.848 16.198 7.586z"/><path d="M384.253 221.404L149.58 2.417A8.543 8.543 0 00142.71.16c-2.46.308-4.818 1.64-6.253 3.691L61.308 108.937c-1.538 2.153-2.05 4.921-1.333 7.484.718 2.563 2.46 4.716 4.921 5.844l85.401 37.728 1.538.718 14.353-13.02-84.068-37.216 63.051-88.066 221.96 207.3-43.571 77.608-1.333 2.358 15.48 8.612 48.288-86.118c2.05-3.486 1.333-7.997-1.742-10.765zm54.541-112.569L363.544 3.75C362.107 1.7 359.75.366 357.288.059c-2.46-.308-5.023.615-6.869 2.255l-85.708 79.967 13.02 12.2 77.302-72.175 63.05 88.066-83.862 37.113 14.045 13.123 87.042-38.446c2.46-1.127 4.203-3.28 4.92-5.843.616-2.563.103-5.331-1.435-7.484z"/><path d="M368.567 83.204l-14.66-13.43-44.085 41.316 14.353 13.636z"/><path d="M37.728 541.375l-12.2-22.555H15.481v22.555H8.304v-54.542h18.762c10.867 0 17.941 6.46 17.941 15.994 0 7.586-4.408 13.123-11.585 15.173l12.713 23.375zm-22.35-28.501h11.483c6.356 0 10.867-3.076 10.867-9.637 0-6.664-4.51-9.637-10.867-9.637H15.378zm73.714 21.837v6.664H53.927v-54.542h34.652v6.664H61.103v17.634h24.81v5.946h-24.81v17.634zm15.48-41.214v18.352H130.1v5.946h-25.528v23.58h-7.176v-54.542h35.268v6.664zm71.458 41.214v6.664h-35.165v-54.542h7.177v47.878zm43.265 0v6.664H184.13v-54.542h34.652v6.664h-27.476v17.634h24.81v5.946h-24.81v17.634zm6.766-20.607c0-16.71 11.483-28.193 26.45-28.193 10.868 0 18.045 4.613 21.838 12.507l-5.639 3.794c-3.28-6.254-7.996-9.535-15.993-9.535-11.38 0-19.377 8.817-19.377 21.53 0 12.918 7.484 21.53 19.377 21.53 8.202 0 12.2-3.076 15.788-9.945l5.741 4.1c-4.305 7.895-10.97 12.713-21.837 12.61-15.07-.307-26.348-11.687-26.348-28.398zm94.423-20.709h-16.096v47.98h-7.177v-47.98h-16.198v-6.562h39.47zm7.484-6.562h7.177v54.542h-7.177zm15.173 27.271c0-16.198 11.073-28.193 26.759-28.193 15.685 0 26.758 11.995 26.758 28.193 0 16.199-11.073 28.194-26.758 28.194-15.686 0-26.759-11.995-26.759-28.194zm46.34 0c0-12.507-7.996-21.53-19.479-21.53-11.482 0-19.48 8.92-19.48 21.53 0 12.508 7.998 21.53 19.48 21.53 11.483 0 19.48-9.022 19.48-21.53zm15.379-27.271h9.842l26.04 46.135h.513l-.513-6.459v-39.676h7.177v54.542h-9.842l-26.04-46.135h-.514l.513 6.46v39.675h-7.176zm50.645 43.675l6.05-4.511c2.05 5.638 6.356 9.534 12.61 9.534 6.253 0 10.354-2.665 10.354-8.92 0-5.33-3.076-7.79-12.2-10.969-6.971-2.46-14.763-7.176-14.763-15.583 0-8.715 7.792-14.25 16.506-14.25s13.738 3.69 16.711 9.944l-5.639 4.1c-2.665-5.638-6.869-7.38-11.175-7.38-4.716 0-9.534 2.255-9.534 7.38 0 5.024 4.203 7.587 13.225 10.868 8.304 2.973 14.046 7.484 14.046 15.378 0 10.15-8.612 16.096-17.532 16.096-8.201.103-15.378-3.588-18.659-11.687z" class="st1" fill="#1d1d1b"/></svg>